<?xml version="1.0" encoding="utf-8"?>
<!-- Generator: Adobe Illustrator 27.5.0, SVG Export Plug-In . SVG Version: 6.00 Build 0)  -->
<svg version="1.1" id="Capa_1" xmlns="http://www.w3.org/2000/svg" xmlns:xlink="http://www.w3.org/1999/xlink" x="0px" y="0px"
	 viewBox="0 0 41.6 50" style="enable-background:new 0 0 41.6 50;" xml:space="preserve">
<style type="text/css">
	.st0{fill:#00AF00;}
</style>
<path class="st0" d="M20.8,48.4c-10.6,0-19.2-8.6-19.2-19.2S10.2,10,20.8,10S40,18.6,40,29.2S31.4,48.4,20.8,48.4L20.8,48.4z
	 M19.8,6.4h2v2h-2V6.4z M16.3,3.9V2.4c0-0.2,0.2-0.4,0.4-0.4h8.2c0.2,0,0.4,0.2,0.4,0.4v1.5c0,0.2-0.2,0.5-0.4,0.5h-8.2
	C16.5,4.4,16.3,4.1,16.3,3.9z M37.5,12.8l1.6,1.6l-2,1.9c-0.4-0.6-0.9-1.1-1.4-1.6L37.5,12.8z M40.5,15.8c0.8-0.8,0.8-2.1,0-2.9
	L39,11.3c-0.8-0.8-2.1-0.8-2.9,0l-1.9,2c-2.9-2.5-6.5-4.1-10.3-4.7V6.4H25c1.1-0.1,2-1,2.1-2.1V2.1C27.1,0.9,26.2,0,25,0
	c0,0,0,0,0,0h-8.3c-1.2,0-2.1,0.9-2.1,2.1c0,0,0,0,0,0v2.2c0.1,1.1,1,2,2.1,2.1h1v2.2C6.3,10.3-1.5,20.9,0.2,32.3
	s12.3,19.2,23.7,17.5c10.2-1.5,17.7-10.3,17.7-20.5c0-4-1.1-7.9-3.3-11.2L40.5,15.8z"/>
<path class="st0" d="M21.7,43.8v-1.9c0-0.6-0.4-1-1-1s-1,0.4-1,1v1.9c-7.2-0.6-12.9-6.3-13.5-13.5H8c0.6,0,1-0.4,1-1s-0.4-1-1-1H6.2
	c0.5-7.3,6.2-13.1,13.5-13.7v1.9c0,0.6,0.4,1,1,1s1-0.4,1-1v-1.9C29.1,15,35,20.9,35.4,28.3h-2c-0.6,0-1,0.4-1,1s0.4,1,1,1h2
	C34.9,37.6,29,43.4,21.7,43.8z M20.8,12.7h-0.2c-8.9,0.1-16.1,7.2-16.3,16.1c-0.1,0.3-0.1,0.7,0,1c0.4,8.8,7.5,15.7,16.3,15.9h0.2
	c9.1,0,16.5-7.4,16.5-16.5S29.9,12.7,20.8,12.7z"/>
<path class="st0" d="M26.6,28.4h-4.8v-6.8c0-0.6-0.4-1-1-1s-1,0.4-1,1v7.8c0,0.6,0.4,1,1,1h5.8c0.5,0.1,1-0.3,1.1-0.9
	c0,0,0-0.1,0-0.1C27.6,28.8,27.2,28.4,26.6,28.4z"/>
</svg>
