<?xml version="1.0" encoding="utf-8"?>
<!-- Generator: Adobe Illustrator 27.5.0, SVG Export Plug-In . SVG Version: 6.00 Build 0)  -->
<svg version="1.1" id="Capa_1" xmlns="http://www.w3.org/2000/svg" xmlns:xlink="http://www.w3.org/1999/xlink" x="0px" y="0px"
	 viewBox="0 0 50 50" style="enable-background:new 0 0 50 50;" xml:space="preserve">
<style type="text/css">
	.st0{fill:#00AF00;}
</style>
<path class="st0" d="M48.3,15H1.7V9.2c0-1.4,1.1-2.5,2.5-2.5h4.1v1.6c-0.3,1.9,0.9,3.6,2.8,3.9c1.9,0.3,3.6-0.9,3.9-2.8
	c0.1-0.4,0.1-0.8,0-1.2V6.7h6.7v1.6c0,1.8,1.5,3.3,3.3,3.3c1.8,0,3.3-1.5,3.3-3.3V6.7H35v1.6c-0.3,1.9,0.9,3.6,2.8,3.9
	s3.6-0.9,3.9-2.8c0.1-0.4,0.1-0.8,0-1.2V6.7h4.1c1.4,0,2.5,1.1,2.5,2.5V15z M10,3.3c0-0.9,0.7-1.6,1.6-1.6c0,0,0.1,0,0.1,0
	c0.9,0,1.6,0.7,1.6,1.6c0,0,0,0,0,0v5c0.1,0.9-0.6,1.6-1.5,1.7c0,0-0.1,0-0.1,0c-0.9,0.1-1.6-0.6-1.7-1.5c0-0.1,0-0.1,0-0.2V3.3z
	 M23.3,3.3c0-0.9,0.8-1.7,1.7-1.7c0.9,0,1.7,0.8,1.7,1.7v5c0,0.9-0.8,1.7-1.7,1.7c-0.9,0-1.7-0.8-1.7-1.7V3.3z M36.7,3.3
	c0-0.9,0.7-1.6,1.6-1.6c0.9-0.1,1.6,0.6,1.7,1.5c0,0,0,0.1,0,0.1v5c0.1,0.9-0.6,1.6-1.5,1.7c-0.1,0-0.1,0-0.2,0
	c-0.9,0-1.6-0.7-1.6-1.6c0,0,0-0.1,0-0.1L36.7,3.3z M45.8,5h-4.1V3.3c-0.3-1.9-2.1-3.1-3.9-2.8c-1.4,0.2-2.5,1.4-2.8,2.8V5h-6.7V3.3
	C28.3,1.5,26.8,0,25,0c-1.8,0-3.3,1.5-3.3,3.3V5H15V3.3c-0.3-1.9-2.1-3.1-3.9-2.8C9.7,0.8,8.5,1.9,8.3,3.3V5H4.2C1.9,5,0,6.9,0,9.2
	c0,0,0,0,0,0v33.3c0,2.3,1.9,4.2,4.2,4.2c0,0,0,0,0,0h23.3c0.4,0,0.8-0.4,0.8-0.8c0,0,0-0.1,0-0.1c0-0.4-0.4-0.8-0.8-0.8H4.2
	c-1.4,0-2.5-1.1-2.5-2.5V16.7h46.6v14.1c0,0.5,0.4,0.9,0.9,0.9l0,0c0.5-0.1,0.8-0.4,0.8-0.9V9.2C50,6.9,48.1,5,45.8,5L45.8,5z"/>
<path class="st0" d="M18.3,25v-2.5h3.4V25H18.3z M23.3,22.5c0-0.9-0.7-1.6-1.6-1.7h-3.4c-0.9,0.1-1.6,0.8-1.6,1.7V25
	c0,0.9,0.7,1.6,1.6,1.7h3.4c0.9-0.1,1.6-0.8,1.6-1.7V22.5z"/>
<path class="st0" d="M8.3,25v-2.5h3.4V25H8.3z M13.3,22.5c0-0.9-0.7-1.6-1.6-1.7H8.3c-0.9,0.1-1.6,0.8-1.6,1.7V25
	c0,0.9,0.7,1.6,1.6,1.7h3.4c0.9-0.1,1.6-0.8,1.6-1.7V22.5z"/>
<path class="st0" d="M38.3,22.5h3.4V25h-3.4V22.5z M41.7,26.7c0.9-0.1,1.6-0.8,1.6-1.7v-2.5c0-0.9-0.7-1.6-1.6-1.7h-3.4
	c-0.9,0.1-1.6,0.8-1.6,1.7V25c0,0.9,0.7,1.6,1.6,1.7H41.7z"/>
<path class="st0" d="M18.3,32.5V30h3.4v2.5H18.3z M23.3,30c0-0.9-0.7-1.6-1.6-1.7h-3.4c-0.9,0.1-1.6,0.8-1.6,1.7v2.5
	c0,0.9,0.7,1.6,1.6,1.7h3.4c0.9-0.1,1.6-0.8,1.6-1.7L23.3,30z"/>
<path class="st0" d="M8.3,32.5V30h3.4v2.5H8.3z M13.3,30c0-0.9-0.7-1.6-1.6-1.7H8.3c-0.9,0.1-1.6,0.8-1.6,1.7v2.5
	c0,0.9,0.7,1.6,1.6,1.7h3.4c0.9-0.1,1.6-0.8,1.6-1.7L13.3,30z"/>
<path class="st0" d="M18.3,40v-2.5h3.4V40H18.3z M21.7,35.8h-3.4c-0.9,0.1-1.6,0.8-1.6,1.7V40c0,0.9,0.7,1.6,1.6,1.7h3.4
	c0.9-0.1,1.6-0.8,1.6-1.7v-2.5C23.3,36.6,22.6,35.9,21.7,35.8z"/>
<path class="st0" d="M28.3,22.5h3.4V25h-3.4V22.5z M28.3,26.7h3.4c0.9-0.1,1.6-0.8,1.6-1.7v-2.5c0-0.9-0.7-1.6-1.6-1.7h-3.4
	c-0.9,0.1-1.6,0.8-1.6,1.7V25C26.7,25.9,27.4,26.6,28.3,26.7z"/>
<path class="st0" d="M26.7,32.5c0,0.9,0.7,1.6,1.6,1.7c0.5,0,0.9-0.4,0.9-0.9l0,0c-0.1-0.5-0.4-0.8-0.9-0.8V30h3.4
	c0.4,0,0.8-0.4,0.8-0.8c0-0.5-0.3-0.8-0.8-0.9h-3.4c-0.9,0.1-1.6,0.8-1.6,1.7V32.5z"/>
<path class="st0" d="M8.3,40v-2.5h3.4V40H8.3z M11.7,35.8H8.3c-0.9,0.1-1.6,0.8-1.6,1.7V40c0,0.9,0.7,1.6,1.6,1.7h3.4
	c0.9-0.1,1.6-0.8,1.6-1.7v-2.5C13.3,36.6,12.6,35.9,11.7,35.8z"/>
<path class="st0" d="M39.2,48.3c-5.1,0.1-9.2-4-9.3-9.1c-0.1-5.1,4-9.2,9.1-9.3c5.1-0.1,9.2,4,9.3,9.1c0,0.1,0,0.1,0,0.2
	C48.2,44.2,44.2,48.2,39.2,48.3z M39.2,28.3c-6-0.6-11.3,3.8-11.9,9.8s3.8,11.3,9.8,11.9c0.7,0.1,1.4,0.1,2.1,0
	c6,0,10.8-4.8,10.8-10.8C50,33.2,45.2,28.4,39.2,28.3z"/>
<path class="st0" d="M44,35.7l-6.5,6.5l-2.9-3c-0.3-0.3-0.9-0.3-1.2,0s-0.3,0.9,0,1.2l3.5,3.5c0.3,0.3,0.9,0.3,1.2,0l7.1-7
	c0.3-0.3,0.3-0.8,0-1.1c0,0-0.1,0-0.1-0.1C44.8,35.4,44.3,35.4,44,35.7z"/>
</svg>
