<?xml version="1.0" encoding="utf-8"?>
<!-- Generator: Adobe Illustrator 27.5.0, SVG Export Plug-In . SVG Version: 6.00 Build 0)  -->
<svg version="1.1" id="Capa_1" xmlns="http://www.w3.org/2000/svg" xmlns:xlink="http://www.w3.org/1999/xlink" x="0px" y="0px"
	 viewBox="0 0 62.1 50" style="enable-background:new 0 0 62.1 50;" xml:space="preserve">
<style type="text/css">
	.st0{fill:#00AF00;}
</style>
<path class="st0" d="M53,45h-2.1c-0.5,0-0.9,0.4-0.9,0.9c0,0.5,0.4,0.9,0.9,0.9H53c0.5,0,0.9-0.4,0.9-0.9C53.9,45.4,53.5,45,53,45
	C53,45,53,45,53,45z"/>
<path class="st0" d="M31,10.8c-3.9,0-7.6,1.5-10.3,4.3c-0.4,0.3-0.4,0.9,0,1.3c0,0,0,0,0,0c0.4,0.3,0.9,0.3,1.3,0c5-4.9,13-4.9,18,0
	c0.4,0.3,0.9,0.3,1.3,0c0.3-0.4,0.3-0.9,0-1.3C38.6,12.3,34.9,10.8,31,10.8z"/>
<path class="st0" d="M38.2,19.5c0.3-0.4,0.3-0.9,0-1.3c-3.9-4-10.3-4-14.3-0.1c0,0-0.1,0.1-0.1,0.1c-0.4,0.3-0.4,0.9,0,1.3
	c0,0,0,0,0,0c0.4,0.3,0.9,0.3,1.3,0c3.2-3.3,8.5-3.3,11.7-0.1c0,0,0,0,0.1,0.1C37.3,19.8,37.8,19.8,38.2,19.5z"/>
<path class="st0" d="M26.9,21.3c-0.4,0.3-0.4,0.9,0,1.3c0,0,0,0,0,0c0.4,0.3,0.9,0.3,1.3,0c1.5-1.5,4-1.6,5.5-0.1
	c0,0,0.1,0.1,0.1,0.1c0.4,0.4,0.9,0.4,1.3,0s0.4-0.9,0-1.3C32.9,19,29.3,19,27,21.2C27,21.2,26.9,21.3,26.9,21.3z"/>
<path class="st0" d="M38.4,32.3c0.5,0,0.9-0.4,0.9-0.9c0-0.5-0.4-0.9-0.9-0.9H10.1V6.1H52v8.7c0,0.5,0.4,0.9,0.9,0.9
	c0.5,0,0.9-0.4,0.9-0.9c0,0,0,0,0,0V6c0-0.9-0.8-1.7-1.7-1.7H10C9.1,4.3,8.3,5.1,8.3,6v24.6c0,0.9,0.8,1.7,1.7,1.7H38.4z"/>
<path class="st0" d="M60.3,47.2c0,0.5-0.5,1-1,1H44.6c-0.6,0-1-0.4-1-1V21c0-0.6,0.4-1,1-1h14.7c0.5,0,1,0.5,1,1V47.2z M6.7,42.1
	c-2.7,0-4.9-2.2-4.9-4.9c0,0,0,0,0,0c0-0.3,0.3-0.6,0.6-0.6h18.1v0.9c0,1.5,1.2,2.7,2.7,2.7c0,0,0,0,0,0h13.5c1.5,0,2.7-1.2,2.8-2.7
	v-0.9h2.3v5.5H6.7z M22.3,36.6h15.3v0.9c0,0.5-0.4,0.9-0.9,0.9h0H23.2c-0.5,0-0.9-0.4-0.9-0.9l0,0L22.3,36.6z M5.8,4.1
	c0-1.3,1-2.3,2.3-2.3l0,0H54c1.3,0,2.3,1,2.3,2.3v14.1H44.6c-1.5-0.1-2.7,1.1-2.8,2.6c0,0.1,0,0.1,0,0.2v13.8h-36V4.1z M59.3,18.2
	h-1.2V4.1C58.1,1.8,56.3,0,54,0H8.1C5.8,0,4,1.8,4,4.1l0,0v30.7H2.4c-1.3,0-2.4,1.1-2.4,2.4c0,0,0,0,0,0c0,3.7,3,6.7,6.7,6.7
	c0,0,0,0,0,0h35.1v3.3c0,1.5,1.3,2.8,2.8,2.8h14.7c1.5-0.1,2.7-1.3,2.8-2.8V21C62.1,19.5,60.8,18.2,59.3,18.2z"/>
<path class="st0" d="M57,41.8H46.9V23.3H57V41.8z M57.1,21.5H46.7c-0.9,0-1.6,0.7-1.6,1.6V42c0,0.9,0.7,1.6,1.6,1.6h10.4
	c0.9,0,1.6-0.7,1.7-1.6V23.1C58.7,22.2,58,21.5,57.1,21.5z"/>
</svg>
