<?xml version="1.0" encoding="utf-8"?>
<!-- Generator: Adobe Illustrator 27.5.0, SVG Export Plug-In . SVG Version: 6.00 Build 0)  -->
<svg version="1.1" id="Capa_1" xmlns="http://www.w3.org/2000/svg" xmlns:xlink="http://www.w3.org/1999/xlink" x="0px" y="0px"
	 viewBox="0 0 50 50" style="enable-background:new 0 0 50 50;" xml:space="preserve">
<style type="text/css">
	.st0{fill:#00AF00;}
</style>
<path class="st0" d="M28.9,27.9c0.5,0,0.9-0.4,1-0.9c0-0.6-0.4-1-1-1s-1,0.4-1,1C28,27.5,28.4,27.9,28.9,27.9z"/>
<path class="st0" d="M7.4,27.9c0.5,0.1,0.9-0.3,1-0.8c0,0,0-0.1,0-0.1c0.1-0.5-0.3-0.9-0.8-1c-0.1,0-0.1,0-0.2,0c-0.6,0-1,0.4-1,1
	C6.5,27.5,6.9,27.9,7.4,27.9z"/>
<path class="st0" d="M1,12.3c0.6,0,1-0.4,1-1V2h9.3c0.6,0,1-0.4,1-1c0.1-0.5-0.3-0.9-0.8-1c-0.1,0-0.1,0-0.2,0H1
	C0.5-0.1,0.1,0.3,0,0.8C0,0.9,0,0.9,0,1v10.3c-0.1,0.5,0.3,0.9,0.8,1C0.9,12.3,0.9,12.3,1,12.3z"/>
<path class="st0" d="M12.3,49c0-0.6-0.4-1-1-1H2v-9.3c0-0.6-0.4-1-1-1c-0.5-0.1-0.9,0.3-1,0.8c0,0.1,0,0.1,0,0.2V49
	c-0.1,0.5,0.3,0.9,0.8,1c0.1,0,0.1,0,0.2,0h10.3c0.5,0.1,0.9-0.3,1-0.8C12.3,49.1,12.3,49.1,12.3,49z"/>
<path class="st0" d="M49,37.7c-0.6,0-1,0.4-1,1V48h-9.3c-0.6,0-1,0.4-1,1c-0.1,0.5,0.3,0.9,0.8,1c0.1,0,0.1,0,0.2,0H49
	c0.5,0.1,0.9-0.3,1-0.8c0-0.1,0-0.1,0-0.2V38.7c0.1-0.5-0.3-0.9-0.8-1C49.1,37.7,49.1,37.7,49,37.7z"/>
<path class="st0" d="M49,0H38.7c-0.5-0.1-0.9,0.3-1,0.8c0,0.1,0,0.1,0,0.2c0,0.6,0.4,1,1,1H48v9.3c0,0.6,0.4,1,1,1
	c0.5,0.1,0.9-0.3,1-0.8c0-0.1,0-0.1,0-0.2V1c0.1-0.5-0.3-0.9-0.8-1C49.1,0,49.1,0,49,0z"/>
<path class="st0" d="M8.4,33.8h7.8v7.8H8.4V33.8z M6.4,42.6c0,0.5,0.5,1,1,1h9.8c0.5,0,1-0.5,1-1v-9.8c0-0.5-0.5-1-1-1H7.4
	c-0.5,0-1,0.5-1,1L6.4,42.6z"/>
<path class="st0" d="M16.2,16.2H8.4V8.4h7.8V16.2z M17.2,6.4H7.4c-0.5,0-1,0.5-1,1v9.8c0,0.5,0.5,1,1,1h9.8c0.5,0,1-0.5,1-1V7.4
	C18.2,6.9,17.7,6.4,17.2,6.4z"/>
<path class="st0" d="M41.6,16.2h-7.8V8.4h7.8V16.2z M43.6,7.4c0-0.5-0.5-1-1-1h-9.8c-0.5,0-1,0.5-1,1v9.8c0,0.5,0.5,1,1,1h9.8
	c0.5,0,1-0.5,1-1V7.4z"/>
<path class="st0" d="M41.6,41.6h-7.8v-7.8h7.8V41.6z M43.6,42.6v-9.8c0-0.5-0.5-1-1-1h-9.8c-0.5,0-1,0.5-1,1v9.8c0,0.5,0.5,1,1,1
	h9.8C43.1,43.6,43.6,43.1,43.6,42.6z"/>
<path class="st0" d="M11.4,35.7h1.9c0.6,0,1,0.4,1,1v1.9c0,0.6-0.4,1-1,1h-1.9c-0.6,0-1-0.4-1-1v-1.9C10.4,36.1,10.8,35.7,11.4,35.7
	z"/>
<path class="st0" d="M11.4,10.4h1.9c0.6,0,1,0.4,1,1v1.9c0,0.6-0.4,1-1,1h-1.9c-0.6,0-1-0.4-1-1v-1.9C10.4,10.8,10.8,10.4,11.4,10.4
	z"/>
<path class="st0" d="M36.7,10.4h1.9c0.6,0,1,0.4,1,1v1.9c0,0.6-0.4,1-1,1h-1.9c-0.6,0-1-0.4-1-1v-1.9C35.7,10.8,36.1,10.4,36.7,10.4
	z"/>
<path class="st0" d="M36.7,35.7h1.9c0.6,0,1,0.4,1,1v1.9c0,0.6-0.4,1-1,1h-1.9c-0.6,0-1-0.4-1-1v-1.9C35.7,36.1,36.1,35.7,36.7,35.7
	z"/>
<path class="st0" d="M10.4,27c0,0.5,0.4,0.9,0.9,0.9H24v4.9c0,0.6,0.4,1,1,1s1-0.4,1-1V27c0-0.6-0.4-1-1-1H11.3
	c-0.5,0-0.9,0.4-0.9,0.9C10.4,26.9,10.4,27,10.4,27z"/>
<path class="st0" d="M17.2,24c0.6,0,1-0.4,1-1c-0.1-0.5-0.5-0.9-1-0.9H7.4c-0.5,0-0.9,0.4-1,0.9c0,0.6,0.4,1,1,1H17.2z"/>
<path class="st0" d="M21.1,24H25c0.6,0,1-0.4,1-1c-0.1-0.5-0.5-0.9-1-0.9h-3.9c-0.5,0-0.9,0.4-1,0.9C20.1,23.6,20.5,24,21.1,24z"/>
<path class="st0" d="M21.1,6.4c-0.5,0-1,0.5-1,1v9.8c0,0.5,0.5,1,1,1h6.8V23c0,0.6,0.4,1,1,1h3.9c0.5,0.1,0.9-0.3,1-0.8
	c0-0.1,0-0.1,0-0.2c0-0.5-0.4-0.9-0.9-0.9c0,0-0.1,0-0.1,0h-2.9v-4.9c0-0.6-0.4-1-1-1h-6.8V7.4C22.1,6.9,21.6,6.4,21.1,6.4z"/>
<path class="st0" d="M42.6,22.1h-5.9c-0.5,0-0.9,0.4-1,0.9c0,0.6,0.4,1,1,1h5.9c0.6,0,1-0.4,1-1C43.5,22.5,43.1,22.1,42.6,22.1z"/>
<path class="st0" d="M42.6,26h-9.8c-0.6,0-1,0.4-1,1c0.1,0.5,0.5,0.9,1,0.9h9.8c0.5,0,0.9-0.4,1-0.9C43.6,26.4,43.2,26,42.6,26z"/>
<path class="st0" d="M25,35.7h-3.9c-0.5,0-1,0.5-1,1v5.9c0,0.6,0.4,1,1,1s1-0.4,1-1v-4.9H25c0.6,0,1-0.4,1-1
	C26,36.2,25.5,35.7,25,35.7z"/>
<path class="st0" d="M27.9,41.6H25c-0.6,0-1,0.4-1,1c0,0.5,0.5,1,1,1h3.9c0.5,0,1-0.5,1-1V30.9c0-0.6-0.4-1-1-1s-1,0.4-1,1V41.6z"/>
<path class="st0" d="M28.9,14.3c0.5,0,1-0.5,1-1V7.4c0-0.6-0.4-1-1-1s-1,0.4-1,1v4.9H25c-0.6,0-1,0.4-1,1c0,0.5,0.5,1,1,1H28.9z"/>
</svg>
