<?xml version="1.0" encoding="utf-8"?>
<!-- Generator: Adobe Illustrator 27.5.0, SVG Export Plug-In . SVG Version: 6.00 Build 0)  -->
<svg version="1.1" id="Capa_1" xmlns="http://www.w3.org/2000/svg" xmlns:xlink="http://www.w3.org/1999/xlink" x="0px" y="0px"
	 viewBox="0 0 72 72" style="enable-background:new 0 0 72 72;" xml:space="preserve">
<style type="text/css">
	.st0{opacity:0.65;fill:#FFFFFF;enable-background:new    ;}
	.st1{fill:#FFFFFF;}
	.st2{fill:#00AF00;}
</style>
<circle class="st0" cx="36" cy="36" r="36"/>
<path class="st1" d="M50.2,39.4c1.8,0,3.5,0.4,5.1,1.1V21.3c0-1.1-0.5-2.2-1.3-3l-6.1-6.2c-0.9-0.8-2-1.2-3.1-1.2H20.9
	c-1-0.1-1.8,0.7-1.9,1.7c0,0.1,0,0.1,0,0.2V17h21.4c1.5,0,2.8,1.3,2.8,2.8v12.5c0,1.6-1.2,2.8-2.8,2.9H19v21c-0.1,1,0.7,1.8,1.7,1.9
	c0.1,0,0.1,0,0.2,0h19.6c-1.4-2-2.2-4.4-2.2-6.8C38.3,44.7,43.6,39.4,50.2,39.4L50.2,39.4z"/>
<path class="st1" d="M40.4,19H12.8c-0.4-0.1-0.8,0.3-0.9,0.7c0,0,0,0.1,0,0.1v12.5c0,0.5,0.4,0.9,0.9,0.9h0h27.6
	c0.5-0.1,0.8-0.4,0.8-0.9V19.8C41.2,19.4,40.8,19,40.4,19z"/>
<path class="st1" d="M55.3,51.4c-0.1,0.1-0.1,0.1-0.1,0.2l-4,6c-0.2,0.3-0.6,0.5-1,0.5c-0.4,0-0.8-0.2-1-0.5l-4-6
	c-0.3-0.3-0.3-0.8-0.1-1.2c0.2-0.4,0.6-0.6,1.1-0.6h1.3v-4.2c0-0.7,0.5-1.2,1.2-1.2l0,0h2.8c0.7,0,1.2,0.5,1.2,1.2l0,0v4.2h1.5
	c0.4,0,0.8,0.2,1,0.6h0.1C55.4,50.7,55.4,51.1,55.3,51.4z M57.3,44.4c-1.9-1.9-4.4-3-7.1-3c-5.4-0.1-9.9,4.2-9.9,9.7
	c0,2.6,1,5.2,2.8,7c0.8,0.9,1.7,1.5,2.8,2c1.3,0.7,2.8,1,4.3,1c1.5,0,3-0.3,4.3-1c1-0.5,2-1.2,2.8-2C61,54.3,61,48.2,57.3,44.4z"/>
<path class="st2" d="M20.9,58.1c-1,0.1-1.8-0.7-1.9-1.7c0-0.1,0-0.1,0-0.2v-21h21.4c1.6-0.1,2.8-1.3,2.8-2.9V19.8
	c0-1.5-1.3-2.8-2.8-2.8H19v-4.2c-0.1-1,0.7-1.8,1.7-1.9c0.1,0,0.1,0,0.2,0h23.9c1.1,0,2.2,0.4,3.1,1.2l6.1,6.2
	c0.8,0.8,1.3,1.9,1.3,3v19.2c-1.6-0.7-3.3-1.1-5.1-1.1c-6.6,0-11.9,5.3-11.9,11.9l0,0c0,2.4,0.8,4.8,2.2,6.8H20.9z M11.9,32.3V19.8
	c0-0.4,0.4-0.8,0.8-0.8c0,0,0.1,0,0.1,0h27.6c0.4,0,0.8,0.4,0.8,0.8v12.5c0,0.5-0.3,0.8-0.8,0.9H12.8C12.3,33.2,11.9,32.8,11.9,32.3
	C11.9,32.3,11.9,32.3,11.9,32.3z M50.2,61.1c-1.5,0-3-0.3-4.3-1c-1.1-0.5-2-1.1-2.8-2c-3.8-3.8-3.8-10,0.1-13.9
	c1.9-1.9,4.4-2.9,7-2.8c5.4-0.1,9.9,4.2,9.9,9.7c0,2.6-1,5.2-2.8,7c-0.8,0.8-1.8,1.5-2.8,2C53.2,60.8,51.7,61.1,50.2,61.1z
	 M57.3,41.7V21.3c0-1.7-0.7-3.3-1.9-4.5l-6.1-6.1c-1.2-1.2-2.8-1.8-4.5-1.8H20.9c-2.1-0.1-3.8,1.6-3.9,3.7c0,0.1,0,0.1,0,0.2V17
	h-4.2c-1.5-0.1-2.8,1.2-2.9,2.7c0,0,0,0.1,0,0.1v12.5c0,1.6,1.3,2.9,2.9,2.9h0H17v21c-0.1,2.1,1.6,3.8,3.7,3.9c0.1,0,0.1,0,0.2,0
	h21.4c2.2,2,5,3,7.9,3c6.5,0,11.8-5.3,11.9-11.8C62.1,47.5,60.3,44,57.3,41.7z"/>
<path class="st2" d="M50.2,56.4l-3.5-5.1H49v-5.4h2.2v5.4h2.4L50.2,56.4z M55.2,50.4c-0.2-0.4-0.6-0.6-1-0.6h-1.5v-4.2
	c0-0.7-0.5-1.2-1.2-1.2l0,0h-2.8c-0.7,0-1.2,0.5-1.2,1.2l0,0v4.2h-1.3c-0.5,0-0.9,0.2-1.1,0.6c-0.2,0.4-0.2,0.9,0.1,1.2l4,6
	c0.2,0.3,0.6,0.5,1,0.5c0.4,0,0.8-0.2,1-0.5l4-6c0-0.1,0-0.1,0.1-0.2C55.4,51.1,55.4,50.8,55.2,50.4L55.2,50.4z"/>
<path class="st2" d="M35.7,27H33v2.9h-1.8v-7.2H36v1.4h-3v1.6h2.7V27z M26.5,24.1v4.4h0.6c0.5,0,0.9-0.1,1.1-0.5
	c0.3-0.4,0.5-1,0.4-1.5v-0.4c0.1-0.5-0.1-1.1-0.4-1.5c-0.2-0.4-0.6-0.5-1.1-0.5H26.5z M24.8,29.9v-7.2h2.3c0.6,0,1.2,0.2,1.7,0.5
	c0.5,0.3,0.9,0.7,1.1,1.2c0.3,0.5,0.5,1.1,0.5,1.7v0.4c0,0.6-0.2,1.2-0.4,1.7c-0.3,0.5-0.7,0.9-1.2,1.2c-0.5,0.3-1.1,0.5-1.7,0.5
	L24.8,29.9z M20,26.1h1.1l0.8-0.2c0.1-0.2,0.2-0.5,0.2-0.7c0-0.3-0.1-0.6-0.2-0.8c-0.2-0.2-0.5-0.3-0.8-0.3H20V26.1z M20,27.4v2.5
	h-1.7v-7.2h2.8c0.5,0,1,0.1,1.5,0.3c0.4,0.2,0.7,0.5,0.9,0.9c0.3,0.4,0.4,0.8,0.4,1.3c0,0.6-0.3,1.2-0.8,1.6c-0.6,0.4-1.3,0.6-2,0.6
	H20z"/>
</svg>
